<mxfile host="Electron" modified="2023-09-25T09:07:04.963Z" agent="Mozilla/5.0 (Windows NT 10.0; Win64; x64) AppleWebKit/537.36 (KHTML, like Gecko) draw.io/21.7.5 Chrome/114.0.5735.289 Electron/25.8.1 Safari/537.36" etag="bPNUlCldkhKYqwhiKHPV" version="21.7.5" type="device">
  <diagram name="Page-1" id="B5wbCqf6-nGuKGuBVjZ5">
    <mxGraphModel dx="1418" dy="820" grid="1" gridSize="10" guides="1" tooltips="1" connect="1" arrows="1" fold="1" page="1" pageScale="1" pageWidth="850" pageHeight="1100" math="0" shadow="0">
      <root>
        <mxCell id="0" />
        <mxCell id="1" parent="0" />
        <mxCell id="WUPkjCL0fOqbodGG6Jco-2" value="&lt;font color=&quot;#ffffff&quot;&gt;React App&lt;/font&gt;" style="rounded=0;whiteSpace=wrap;html=1;verticalAlign=top;fillStyle=auto;fillColor=#686973;fontColor=#000000;" parent="1" vertex="1">
          <mxGeometry x="170" y="110" width="460" height="300" as="geometry" />
        </mxCell>
        <mxCell id="WUPkjCL0fOqbodGG6Jco-19" value="HTTP/S" style="rounded=0;whiteSpace=wrap;html=1;" parent="1" vertex="1">
          <mxGeometry x="170" y="430" width="460" height="30" as="geometry" />
        </mxCell>
        <mxCell id="WUPkjCL0fOqbodGG6Jco-21" value="" style="group;fillColor=#0050ef;fontColor=#ffffff;strokeColor=#001DBC;" parent="1" vertex="1" connectable="0">
          <mxGeometry x="180" y="140" width="440" height="70" as="geometry" />
        </mxCell>
        <mxCell id="WUPkjCL0fOqbodGG6Jco-12" value="React Redux + Redux Toolkit" style="rounded=0;whiteSpace=wrap;html=1;verticalAlign=top;fillColor=#0050ef;fontColor=#ffffff;strokeColor=#001DBC;" parent="WUPkjCL0fOqbodGG6Jco-21" vertex="1">
          <mxGeometry width="440" height="70" as="geometry" />
        </mxCell>
        <mxCell id="WUPkjCL0fOqbodGG6Jco-16" value="App State" style="rounded=0;whiteSpace=wrap;html=1;fillColor=#1ba1e2;fontColor=#ffffff;strokeColor=#006EAF;" parent="WUPkjCL0fOqbodGG6Jco-21" vertex="1">
          <mxGeometry x="10" y="30" width="420" height="30" as="geometry" />
        </mxCell>
        <mxCell id="WUPkjCL0fOqbodGG6Jco-22" value="Material UI" style="rounded=0;whiteSpace=wrap;html=1;verticalAlign=top;" parent="1" vertex="1">
          <mxGeometry x="180" y="220" width="440" height="180" as="geometry" />
        </mxCell>
        <mxCell id="WUPkjCL0fOqbodGG6Jco-23" value="" style="group" parent="1" vertex="1" connectable="0">
          <mxGeometry x="190" y="300" width="420" height="90" as="geometry" />
        </mxCell>
        <mxCell id="WUPkjCL0fOqbodGG6Jco-4" value="React Router" style="rounded=0;whiteSpace=wrap;html=1;fillColor=#008a00;fontColor=#ffffff;strokeColor=#005700;verticalAlign=top;" parent="WUPkjCL0fOqbodGG6Jco-23" vertex="1">
          <mxGeometry width="420" height="90" as="geometry" />
        </mxCell>
        <mxCell id="WUPkjCL0fOqbodGG6Jco-5" value="Landing&lt;br&gt;Page" style="rounded=0;whiteSpace=wrap;html=1;fillColor=#60a917;fontColor=#ffffff;strokeColor=#2D7600;" parent="WUPkjCL0fOqbodGG6Jco-23" vertex="1">
          <mxGeometry x="100" y="40" width="60" height="40" as="geometry" />
        </mxCell>
        <mxCell id="WUPkjCL0fOqbodGG6Jco-6" value="Browsing Page" style="rounded=0;whiteSpace=wrap;html=1;fillColor=#60a917;fontColor=#ffffff;strokeColor=#2D7600;" parent="WUPkjCL0fOqbodGG6Jco-23" vertex="1">
          <mxGeometry x="20" y="40" width="60" height="40" as="geometry" />
        </mxCell>
        <mxCell id="WUPkjCL0fOqbodGG6Jco-7" value="Sign-Up&lt;br&gt;Page" style="rounded=0;whiteSpace=wrap;html=1;fillColor=#60a917;fontColor=#ffffff;strokeColor=#2D7600;" parent="WUPkjCL0fOqbodGG6Jco-23" vertex="1">
          <mxGeometry x="180" y="40" width="60" height="40" as="geometry" />
        </mxCell>
        <mxCell id="WUPkjCL0fOqbodGG6Jco-8" value="Profile&lt;br&gt;Page" style="rounded=0;whiteSpace=wrap;html=1;fillColor=#60a917;fontColor=#ffffff;strokeColor=#2D7600;" parent="WUPkjCL0fOqbodGG6Jco-23" vertex="1">
          <mxGeometry x="260" y="40" width="60" height="40" as="geometry" />
        </mxCell>
        <mxCell id="WUPkjCL0fOqbodGG6Jco-9" value="Settings&lt;br&gt;Page" style="rounded=0;whiteSpace=wrap;html=1;fillColor=#60a917;fontColor=#ffffff;strokeColor=#2D7600;" parent="WUPkjCL0fOqbodGG6Jco-23" vertex="1">
          <mxGeometry x="340" y="40" width="60" height="40" as="geometry" />
        </mxCell>
        <mxCell id="WUPkjCL0fOqbodGG6Jco-24" value="" style="shape=image;verticalLabelPosition=bottom;labelBackgroundColor=default;verticalAlign=top;aspect=fixed;imageAspect=0;image=https://v4.mui.com/static/logo.png;" parent="1" vertex="1">
          <mxGeometry x="362.5" y="232.5" width="75" height="75" as="geometry" />
        </mxCell>
        <mxCell id="WUPkjCL0fOqbodGG6Jco-26" value="AWS&lt;br&gt;Amplify" style="rounded=0;whiteSpace=wrap;html=1;verticalAlign=middle;fillStyle=auto;fillColor=default;fontColor=#FFFFFF;fontSize=21;spacingTop=110;" parent="1" vertex="1">
          <mxGeometry x="640" y="110" width="170" height="300" as="geometry" />
        </mxCell>
        <mxCell id="WUPkjCL0fOqbodGG6Jco-27" value="" style="rounded=0;whiteSpace=wrap;html=1;" parent="1" vertex="1">
          <mxGeometry x="170" y="510" width="460" height="480" as="geometry" />
        </mxCell>
        <mxCell id="WUPkjCL0fOqbodGG6Jco-28" value="User&lt;br&gt;Endpoint" style="whiteSpace=wrap;html=1;aspect=fixed;" parent="1" vertex="1">
          <mxGeometry x="180" y="520" width="80" height="80" as="geometry" />
        </mxCell>
        <mxCell id="WUPkjCL0fOqbodGG6Jco-30" value="Properties&lt;br&gt;Endpoint" style="whiteSpace=wrap;html=1;aspect=fixed;" parent="1" vertex="1">
          <mxGeometry x="270" y="520" width="80" height="80" as="geometry" />
        </mxCell>
        <mxCell id="WUPkjCL0fOqbodGG6Jco-31" value="Login/&lt;br&gt;Authentication&lt;br&gt;Endpoint" style="whiteSpace=wrap;html=1;aspect=fixed;" parent="1" vertex="1">
          <mxGeometry x="360" y="520" width="80" height="80" as="geometry" />
        </mxCell>
        <mxCell id="WUPkjCL0fOqbodGG6Jco-32" value="+ More&lt;br&gt;Endpoints&lt;br&gt;As&lt;br&gt;Required" style="whiteSpace=wrap;html=1;aspect=fixed;" parent="1" vertex="1">
          <mxGeometry x="540" y="520" width="80" height="80" as="geometry" />
        </mxCell>
        <mxCell id="WUPkjCL0fOqbodGG6Jco-33" value="Applications&lt;br&gt;Endpoint" style="whiteSpace=wrap;html=1;aspect=fixed;" parent="1" vertex="1">
          <mxGeometry x="450" y="520" width="80" height="80" as="geometry" />
        </mxCell>
        <mxCell id="WUPkjCL0fOqbodGG6Jco-41" value="" style="shape=flexArrow;endArrow=classic;startArrow=classic;html=1;rounded=0;entryX=0.111;entryY=1.045;entryDx=0;entryDy=0;entryPerimeter=0;exitX=0.5;exitY=0;exitDx=0;exitDy=0;" parent="1" source="WUPkjCL0fOqbodGG6Jco-28" target="WUPkjCL0fOqbodGG6Jco-19" edge="1">
          <mxGeometry width="100" height="100" relative="1" as="geometry">
            <mxPoint x="250" y="550" as="sourcePoint" />
            <mxPoint x="350" y="450" as="targetPoint" />
          </mxGeometry>
        </mxCell>
        <mxCell id="WUPkjCL0fOqbodGG6Jco-42" value="" style="shape=flexArrow;endArrow=classic;startArrow=classic;html=1;rounded=0;entryX=0.111;entryY=1.045;entryDx=0;entryDy=0;entryPerimeter=0;exitX=0.5;exitY=0;exitDx=0;exitDy=0;" parent="1" edge="1">
          <mxGeometry width="100" height="100" relative="1" as="geometry">
            <mxPoint x="309.5" y="520" as="sourcePoint" />
            <mxPoint x="310.5" y="461" as="targetPoint" />
          </mxGeometry>
        </mxCell>
        <mxCell id="WUPkjCL0fOqbodGG6Jco-43" value="" style="shape=flexArrow;endArrow=classic;startArrow=classic;html=1;rounded=0;entryX=0.111;entryY=1.045;entryDx=0;entryDy=0;entryPerimeter=0;exitX=0.5;exitY=0;exitDx=0;exitDy=0;" parent="1" edge="1">
          <mxGeometry width="100" height="100" relative="1" as="geometry">
            <mxPoint x="399.5" y="520" as="sourcePoint" />
            <mxPoint x="400.5" y="461" as="targetPoint" />
          </mxGeometry>
        </mxCell>
        <mxCell id="WUPkjCL0fOqbodGG6Jco-44" value="" style="shape=flexArrow;endArrow=classic;startArrow=classic;html=1;rounded=0;entryX=0.111;entryY=1.045;entryDx=0;entryDy=0;entryPerimeter=0;exitX=0.5;exitY=0;exitDx=0;exitDy=0;" parent="1" edge="1">
          <mxGeometry width="100" height="100" relative="1" as="geometry">
            <mxPoint x="489.5" y="519" as="sourcePoint" />
            <mxPoint x="490.5" y="460" as="targetPoint" />
          </mxGeometry>
        </mxCell>
        <mxCell id="WUPkjCL0fOqbodGG6Jco-45" value="" style="shape=flexArrow;endArrow=classic;startArrow=classic;html=1;rounded=0;entryX=0.111;entryY=1.045;entryDx=0;entryDy=0;entryPerimeter=0;exitX=0.5;exitY=0;exitDx=0;exitDy=0;" parent="1" edge="1">
          <mxGeometry width="100" height="100" relative="1" as="geometry">
            <mxPoint x="579.5" y="519" as="sourcePoint" />
            <mxPoint x="580.5" y="460" as="targetPoint" />
          </mxGeometry>
        </mxCell>
        <mxCell id="WUPkjCL0fOqbodGG6Jco-46" value="" style="endArrow=classic;startArrow=classic;html=1;rounded=0;" parent="1" edge="1">
          <mxGeometry width="50" height="50" relative="1" as="geometry">
            <mxPoint x="150" y="420" as="sourcePoint" />
            <mxPoint x="150" y="110" as="targetPoint" />
          </mxGeometry>
        </mxCell>
        <mxCell id="WUPkjCL0fOqbodGG6Jco-47" value="Frontend" style="text;html=1;align=center;verticalAlign=middle;resizable=0;points=[];autosize=1;strokeColor=none;fillColor=none;rotation=-90;fontSize=26;" parent="1" vertex="1">
          <mxGeometry x="60" y="245" width="130" height="40" as="geometry" />
        </mxCell>
        <mxCell id="WUPkjCL0fOqbodGG6Jco-48" value="" style="shape=image;verticalLabelPosition=bottom;labelBackgroundColor=default;verticalAlign=top;aspect=fixed;imageAspect=0;image=https://seeklogo.com/images/A/aws-amplify-logo-D68DDB5AB1-seeklogo.com.png;" parent="1" vertex="1">
          <mxGeometry x="660" y="187.93" width="130" height="97.07" as="geometry" />
        </mxCell>
      </root>
    </mxGraphModel>
  </diagram>
</mxfile>
